<?xml version="1.0" encoding="utf-8"?>
<!DOCTYPE svg PUBLIC "-//W3C//DTD SVG 1.0//EN" "http://www.w3.org/TR/2001/REC-SVG-20010904/DTD/svg10.dtd">
<svg version="1.0" xmlns="http://www.w3.org/2000/svg" width="5333px" height="2091px" viewBox="0 0 5333 2091" preserveAspectRatio="xMidYMid meet">
 <g fill="#ffffff">
  <path d="M3725.26 1562.98 c11.44 -24.84 30.72 -66.34 42.48 -92.48 156.85 -338.54 260.77 -564.34 263.06 -571.53 1.96 -6.86 1.31 -6.86 -53.26 -6.86 l-55.23 0 -20.59 45.10 c-39.54 85.94 -58.49 126.79 -87.58 190.84 -16.34 35.29 -33 71.89 -36.93 81.04 -6.86 16.01 -7.52 16.67 -18.63 15.69 l-11.44 -0.98 -20.91 -49.02 c-11.11 -26.80 -42.15 -101.30 -68.62 -165.02 l-48.36 -116.01 -56.53 -0.98 -56.21 -0.65 5.56 13.72 c5.56 14.38 66.01 161.43 104.57 254.23 61.11 147.38 85.94 211.10 85.94 221.23 0 7.84 -16.01 45.75 -50.32 118.95 l-50.32 107.51 56.21 0 56.53 0 20.59 -44.77z m651.92 -26.14 c17.65 -39.21 48.04 -104.90 66.99 -146.40 19.28 -41.17 53.26 -114.70 75.49 -163.06 22.22 -48.69 66.34 -144.11 98.03 -212.41 l57.19 -124.50 -51.63 -0.98 c-28.43 -0.33 -54.24 0.65 -57.51 2.29 -5.56 2.94 -10.46 13.40 -79.08 163.72 -81.69 178.42 -76.14 168.29 -88.56 169.27 l-11.11 0.98 -34.97 -84.31 c-19.28 -46.40 -50.32 -120.91 -69.28 -166 l-33.98 -81.69 -55.88 -0.98 c-30.72 -0.33 -55.88 0 -55.88 0.98 0 0.98 18.95 47.71 42.15 103.92 22.87 55.88 66.99 163.06 98.03 237.89 30.72 74.51 55.88 140.19 55.88 145.42 0 5.88 -20.59 53.26 -50.65 117.31 -27.78 59.15 -50.65 107.84 -50.65 108.49 0 0.65 25.49 0.98 56.53 0.98 l56.21 0 32.68 -70.91z m-2754.73 47.06 c10.78 -3.27 34.64 -13.07 52.61 -21.89 67.64 -32.68 117.31 -93.78 139.21 -171.56 l7.52 -26.14 0 -325.14 c0 -369.58 1.63 -345.73 -27.78 -406.84 -33.66 -69.28 -88.23 -116.01 -163.39 -139.53 l-24.51 -7.52 -343.12 0 -343.12 0 -30.39 10.78 c-35.95 12.42 -53.26 21.89 -82.67 45.10 -44.11 34.97 -74.18 79.41 -91.82 135.29 l-7.52 24.51 0 336.58 0 336.58 7.52 24.51 c23.20 73.52 71.24 131.36 136.27 164.37 15.36 7.84 62.41 23.20 80.06 26.14 4.57 0.98 157.51 1.31 339.85 0.98 306.84 -0.65 332.99 -0.98 351.29 -6.21z m510.75 -335.93 l0.65 -162.08 12.42 -2.29 c6.54 -0.98 56.53 -1.96 111.10 -1.96 l98.69 0 0 -57.19 0 -57.19 -111.10 0 -111.10 0 0 -75.16 0 -75.16 111.10 0 111.10 0 0 -57.19 0 -57.19 -171.56 0 -171.56 0 0 352.27 c0 193.78 0.98 353.57 2.29 354.88 1.31 0.98 28.10 1.63 59.47 1.31 l57.51 -0.98 0.98 -162.08z m454.22 -96.73 l0.65 -259.13 -58.82 0 -58.82 0 0 258.15 0 257.83 25.49 1.31 c13.72 0.65 39.87 0.98 57.84 0.98 l32.68 -0.33 0.98 -258.81z m211.75 257.83 c1.96 -1.31 12.42 -14.70 23.53 -30.06 10.78 -15.36 37.25 -51.96 58.82 -81.69 l38.89 -53.92 14.70 -0.98 c14.05 -0.98 15.69 0 25.49 12.42 10.13 12.74 49.67 66.99 91.82 126.46 l19.28 26.47 23.53 2.29 c13.07 0.98 41.83 1.63 64.05 0.98 l40.19 -0.98 -48.69 -66.99 c-26.47 -36.93 -60.78 -83.98 -75.81 -104.57 -64.70 -89.21 -65.36 -90.19 -65.36 -104.90 0 -12.09 3.27 -17.97 25.82 -48.36 14.05 -18.95 50.32 -68.30 80.39 -109.80 30.06 -41.17 56.21 -77.12 58.17 -79.08 2.29 -3.27 -9.80 -4.25 -59.15 -4.25 l-62.09 0 -51.63 70.26 -51.63 70.58 -13.07 -0.98 c-12.74 -0.98 -13.40 -1.96 -63.39 -70.26 l-50.65 -69.60 -61.43 0 c-33.98 0 -61.76 0.65 -61.76 1.63 0 1.63 30.72 44.44 116.99 162.73 42.48 57.84 49.67 69.28 49.67 79.41 0 12.42 -3.92 18.95 -50.65 83 -11.11 15.36 -45.75 63.07 -76.79 106.20 -31.04 43.13 -57.84 80.39 -59.80 82.67 -2.29 2.94 9.48 3.92 56.86 3.92 33 0 61.76 -1.31 63.72 -2.61z m605.19 -362.40 l0.65 -363.70 -54.90 0 c-38.23 0 -56.21 1.31 -58.82 3.92 -2.94 2.94 -3.92 87.90 -3.92 362.07 0 197.05 0.98 359.45 2.29 360.76 1.31 0.98 27.45 1.63 57.84 1.31 l55.88 -0.98 0.98 -363.38z m-846.03 -231.36 c19.93 -10.13 38.23 -31.04 44.11 -50.98 9.80 -32.02 -9.48 -68.95 -45.10 -86.92 -13.40 -6.86 -19.28 -7.84 -32.35 -6.54 -28.76 3.59 -53.92 23.20 -66.01 52.28 -13.72 33 4.57 73.52 41.50 91.82 21.24 10.78 37.58 10.78 57.84 0.33z"/>
  <path d="M1213 802.56 c-49.34 -48.69 -49.34 -46.40 0.33 -96.07 34.64 -34.31 37.58 -36.60 49.67 -36.60 12.42 0 15.36 2.29 50 36.93 49.02 49.34 49.02 47.06 -0.33 96.40 -34.97 34.97 -37.25 36.60 -49.67 36.27 -12.09 -0.33 -16.01 -3.27 -50 -36.93z"/>
 </g>
 <g fill="#102144">
  <path d="M921.51 1598.92 c-17.65 -2.94 -64.70 -18.30 -80.06 -26.14 -65.03 -33 -113.06 -90.84 -136.27 -164.37 l-7.52 -24.51 0 -346.38 0 -346.38 7.52 -24.51 c17.65 -55.88 47.71 -100.32 91.82 -135.29 29.41 -23.20 46.73 -32.68 82.67 -45.10 l30.39 -10.78 352.92 0 352.92 0 24.51 7.52 c75.16 23.53 129.73 70.26 163.39 139.53 29.41 61.11 27.78 35.95 27.78 416.64 l0 334.95 -7.52 26.14 c-15.36 53.92 -38.23 91.50 -79.08 130.38 -21.24 19.93 -33.98 28.43 -60.13 41.17 -61.43 29.74 -27.45 27.45 -413.70 28.10 -187.90 0.33 -345.08 0 -349.65 -0.98z m306.52 -460.76 c-107.51 -106.53 -120.25 -120.58 -120.25 -129.73 0 -8.50 5.23 -15.36 33.66 -43.79 31.04 -31.04 34.31 -33.33 46.40 -33.33 17.65 0 37.58 18.63 37.58 35.62 0 9.80 -3.27 14.70 -20.26 32.02 l-20.59 20.59 13.72 13.72 14.05 13.72 56.86 -56.21 56.86 -56.53 16.34 0.98 16.34 0.98 144.11 142.80 c138.55 137.57 144.11 143.46 144.11 155.22 0 9.80 -2.61 14.70 -13.72 26.14 -24.84 25.49 -16.01 31.70 -167.64 -119.93 l-133.98 -133.98 -14.05 14.05 -13.72 13.72 152.93 152.93 152.60 152.60 52.28 -52.94 52.28 -53.26 -185.28 -184.63 -185.61 -184.63 -33.66 33.66 c-30.39 30.06 -34.64 33.33 -45.42 33.33 -7.52 0 -13.72 -1.96 -16.34 -5.56 -2.61 -3.27 -17.32 -18.30 -33 -33.66 l-28.43 -27.78 -71.89 71.89 -71.89 71.89 32.68 32.68 c29.08 29.08 32.68 33.98 32.68 44.44 0 16.01 -22.87 38.89 -39.21 38.89 -9.80 0 -15.36 -3.92 -44.11 -32.68 l-32.68 -32.68 -89.21 89.21 -88.88 88.88 52.28 52.28 52.28 52.28 107.18 -107.18 106.86 -106.86 14.70 0 c14.70 0 14.70 0 74.18 59.47 55.23 55.23 59.80 60.78 59.80 71.24 0 16.34 -22.87 39.21 -39.21 39.21 -10.13 0 -16.01 -4.57 -58.82 -47.38 l-47.71 -47.38 -13.72 14.05 -13.72 14.05 67.64 66.34 67.32 66.34 52.61 -52.61 52.61 -52.94 -119.93 -119.60z m75.81 -345.73 l37.58 -37.58 -37.58 -37.58 c-20.59 -20.59 -38.89 -37.58 -40.85 -37.58 -1.96 0 -20.26 16.99 -40.85 37.91 l-37.58 37.58 37.58 36.93 c20.59 20.59 39.21 37.25 40.85 37.58 1.96 0 20.26 -16.67 40.85 -37.25z"/>
  <path d="M892.43 1260.05 c-22.87 -23.20 -21.24 -27.12 37.58 -84.31 46.73 -46.08 49.67 -48.36 62.09 -48.36 17.65 0 37.25 18.95 37.25 36.27 0 10.13 -4.57 16.01 -50 61.11 -45.42 45.42 -50.65 49.67 -61.43 49.67 -9.15 0 -14.05 -2.61 -25.49 -14.38z"/>
 </g>
 <g fill="#2850c8">
  <path d="M3582.78 1595.65 c5.88 -12.42 31.04 -65.36 55.88 -118.29 39.54 -85.29 44.11 -96.73 41.17 -104.57 -14.38 -35.95 -100.97 -247.04 -130.38 -317.30 -65.36 -157.51 -68.62 -166.33 -64.38 -169.92 2.61 -2.29 28.10 -2.94 68.95 -2.61 l65.03 0.98 44.77 107.84 c24.84 59.47 52.61 126.14 62.09 148.68 9.15 22.55 20.59 49.02 24.84 58.82 l8.17 17.97 8.17 -17.97 c18.30 -40.19 67.97 -148.03 85.29 -186.26 10.46 -22.55 28.10 -61.11 39.54 -85.62 l20.59 -45.10 69.93 0 c38.23 0 69.60 0.65 69.60 1.31 0 1.31 -56.53 125.48 -104.57 229.07 -16.67 35.95 -56.53 122.87 -88.88 192.80 -32.35 70.26 -68.95 148.68 -81.04 174.83 -11.76 26.14 -31.04 67.64 -42.48 92.48 l-20.59 44.77 -71.56 0 -71.24 0 11.11 -21.89z"/>
  <path d="M4220.32 1600.55 c4.25 -9.48 29.08 -62.74 55.23 -118.29 l47.71 -101.30 -51.96 -125.81 c-28.43 -69.28 -74.18 -180.05 -101.30 -245.74 -27.12 -65.68 -49.34 -121.23 -49.34 -123.52 0 -2.61 17.97 -3.59 68.95 -2.94 l68.95 0.98 33.98 81.69 c18.95 45.10 50 119.60 69.28 165.68 19.28 46.40 35.95 83 36.93 81.69 2.29 -2.61 20.91 -42.48 76.47 -164.04 66.01 -145.09 74.18 -161.75 79.41 -166 3.59 -2.94 23.53 -3.92 71.89 -3.92 63.07 0 66.34 0.33 64.70 5.88 -1.31 3.27 -40.52 89.21 -87.25 190.51 -47.06 101.30 -96.07 207.83 -109.14 236.59 -13.07 28.76 -42.81 93.46 -66.01 143.78 -23.53 50.32 -49.67 107.18 -58.49 126.79 l-15.69 34.97 -71.24 0 -70.91 0 7.84 -16.99z"/>
  <path d="M2005.43 1419.52 c-1.31 -1.31 -2.29 -165.35 -2.29 -364.68 l0 -362.07 181.36 0 181.36 0 0 66.99 0 66.99 -111.10 0 -111.10 0 0 65.36 0 65.36 111.10 0 111.10 0 0 66.99 0 66.99 -98.69 0 c-54.57 0 -104.57 0.98 -111.10 1.96 l-12.42 2.29 -0.65 162.08 -0.98 162.08 -67.32 0.98 c-36.93 0.33 -67.97 -0.33 -69.28 -1.31z"/>
  <path d="M2461.94 1418.54 c-0.65 -0.65 -1.31 -121.89 -1.31 -268.94 l0 -267.30 68.62 0 68.62 0 -0.65 268.94 -0.98 268.61 -66.34 0 c-36.60 0 -67.32 -0.65 -67.97 -1.31z"/>
  <path d="M2656.70 1418.21 c0 -2.94 64.05 -93.13 148.68 -209.14 31.70 -43.46 50.65 -70.91 50.65 -73.20 0 -0.98 -17.97 -26.47 -39.54 -56.21 -117.31 -160.45 -139.86 -192.14 -138.23 -194.76 0.98 -1.31 35.95 -2.61 77.77 -2.61 l76.14 0 50.65 69.28 c27.78 37.91 51.96 69.60 53.59 70.26 1.96 0.65 26.47 -30.39 54.90 -69.28 l51.63 -70.26 78.43 0 c61.76 0 77.77 0.98 75.81 4.25 -4.25 6.54 -95.09 131.36 -152.28 208.48 -14.05 18.95 -25.49 36.60 -25.49 38.56 0 3.92 14.05 24.51 64.38 93.46 99.34 136.92 138.23 190.84 138.23 192.47 0 2.61 -121.56 2.29 -143.13 -0.33 l-17.32 -1.96 -24.84 -34.64 c-13.72 -18.95 -37.25 -51.63 -51.96 -72.22 -36.27 -50 -45.10 -60.45 -50.65 -58.17 -4.25 1.63 -17.97 20.26 -99.34 133.32 -12.42 16.99 -23.85 32.02 -25.82 33.33 -5.88 3.92 -152.28 3.27 -152.28 -0.65z"/>
  <path d="M3279.86 1419.52 c-1.31 -1.31 -2.29 -167.96 -2.29 -370.57 0 -281.68 0.98 -368.93 3.92 -371.87 2.94 -2.94 22.55 -3.92 68.62 -3.92 l64.70 0 -0.65 373.51 -0.98 373.18 -65.68 0.98 c-35.95 0.33 -66.34 -0.33 -67.64 -1.31z"/>
  <path d="M2513.24 832.95 c-56.53 -10.78 -86.92 -74.18 -60.45 -126.14 16.34 -31.70 41.83 -46.73 80.71 -46.73 55.23 0 95.42 56.53 79.41 111.43 -12.09 42.48 -56.53 69.93 -99.67 61.43z"/>
 </g>
 <g fill="#3862f3">
  <path d="M1163.65 1304.82 l-75.81 -74.18 20.59 -20.59 c11.76 -11.76 23.20 -20.59 27.12 -20.59 3.92 0 25.16 18.63 56.21 49.67 l50 50 15.36 -15.69 15.69 -15.36 -60.45 -60.45 c-33.33 -33.33 -62.74 -60.45 -65.36 -60.45 -2.61 0 -55.23 50.32 -116.66 111.76 l-112.08 112.08 -62.09 -62.09 -62.09 -62.09 95.42 -95.42 c58.49 -58.49 98.03 -95.75 101.95 -95.75 3.59 0 21.57 15.03 41.83 34.97 l35.29 34.97 15.69 -15.36 15.36 -15.36 -38.56 -38.56 -38.23 -38.23 79.73 -79.73 c50.65 -50.65 81.37 -79.08 84.64 -78.43 2.94 0.65 21.57 17.32 41.50 36.93 l36.27 35.95 36.60 -36.60 c20.26 -20.26 38.89 -36.60 41.50 -36.60 3.92 0 372.53 363.70 384.94 380.37 4.57 5.56 0 10.46 -55.23 66.01 -33 33 -61.43 60.13 -63.39 60.13 -1.96 0 -75.81 -72.54 -164.37 -161.10 l-160.77 -160.77 22.22 -22.22 c12.09 -12.09 23.53 -21.89 25.16 -21.89 1.96 0 65.03 61.76 140.51 137.25 l137.25 137.25 14.38 -14.38 c12.74 -13.07 13.72 -15.03 9.80 -20.59 -12.42 -16.99 -287.24 -285.28 -292.14 -285.28 -3.27 0 -33.33 27.45 -66.99 60.78 l-61.43 60.78 -23.85 -22.87 -23.85 -22.87 25.82 -26.47 25.82 -26.47 -12.74 -13.07 c-7.19 -7.19 -14.38 -13.07 -16.34 -13.07 -1.96 0 -18.63 15.03 -36.93 33.66 l-33.66 33.66 125.16 124.83 125.16 124.50 -60.45 60.78 c-33.33 33.33 -62.09 60.45 -64.05 60.45 -2.29 0 -37.91 -33.33 -79.41 -74.18z m-193.13 -90.84 l50.32 -50.65 -12.74 -13.07 c-7.19 -7.19 -14.70 -12.74 -16.99 -12.42 -1.96 0.65 -26.14 22.87 -53.26 49.67 l-49.67 48.69 14.05 14.05 c7.84 7.84 15.03 14.38 16.01 14.38 0.98 0 24.51 -22.87 52.28 -50.65z"/>
 </g>
</svg>