<?xml version="1.0" encoding="UTF-8"?>
<!DOCTYPE svg PUBLIC "-//W3C//DTD SVG 1.1//EN" "http://www.w3.org/Graphics/SVG/1.1/DTD/svg11.dtd">
<svg xmlns="http://www.w3.org/2000/svg" version="1.1" width="2083px" height="2083px" style="shape-rendering:geometricPrecision; text-rendering:geometricPrecision; image-rendering:optimizeQuality; fill-rule:evenodd; clip-rule:evenodd" xmlns:xlink="http://www.w3.org/1999/xlink">
<g><path style="opacity:1" fill="#f9f9f9" d="M -0.5,-0.5 C 693.833,-0.5 1388.17,-0.5 2082.5,-0.5C 2082.5,693.833 2082.5,1388.17 2082.5,2082.5C 1388.17,2082.5 693.833,2082.5 -0.5,2082.5C -0.5,1388.17 -0.5,693.833 -0.5,-0.5 Z"/></g>
<g><path style="opacity:1" fill="#061225" d="M 657.5,363.5 C 916.85,363.01 1176.18,363.51 1435.5,365C 1545.4,380.497 1627.56,436.33 1682,532.5C 1701.87,569.775 1713.87,609.442 1718,651.5C 1718.67,910.5 1718.67,1169.5 1718,1428.5C 1704.59,1539.92 1649.76,1623.75 1553.5,1680C 1514.35,1700.94 1472.68,1713.61 1428.5,1718C 1170.17,1718.67 911.833,1718.67 653.5,1718C 555.875,1707.29 478.375,1662.46 421,1583.5C 388.142,1535.6 369.142,1482.6 364,1424.5C 363.333,1168.83 363.333,913.167 364,657.5C 375.156,550.46 425.656,467.96 515.5,410C 559.35,383.55 606.683,368.05 657.5,363.5 Z"/></g>
<g><path style="opacity:1" fill="#f8f8f8" d="M 1039.5,609.5 C 1040.55,609.351 1041.55,609.517 1042.5,610C 1073.35,640.68 1104.01,671.514 1134.5,702.5C 1103.81,734.027 1072.64,765.027 1041,795.5C 1009.36,765.027 978.193,734.027 947.5,702.5C 978.188,671.479 1008.85,640.479 1039.5,609.5 Z"/></g>
<g><path style="opacity:1" fill="#2a56f9" d="M 949.5,810.5 C 980.465,840.965 1011.3,871.632 1042,902.5C 1072.5,872 1103,841.5 1133.5,811C 1134.17,810.333 1134.83,810.333 1135.5,811C 1290.67,966.167 1445.83,1121.33 1601,1276.5C 1601.67,1277.5 1601.67,1278.5 1601,1279.5C 1552.17,1328.33 1503.33,1377.17 1454.5,1426C 1453.83,1426.67 1453.17,1426.67 1452.5,1426C 1323.32,1296.99 1194.32,1167.82 1065.5,1038.5C 1083.65,1019.85 1101.99,1001.35 1120.5,983C 1121.17,982.333 1121.83,982.333 1122.5,983C 1232.5,1093 1342.5,1203 1452.5,1313C 1453.17,1313.67 1453.83,1313.67 1454.5,1313C 1466.17,1301.33 1477.83,1289.67 1489.5,1278C 1371.32,1159.65 1252.99,1041.49 1134.5,923.5C 1083.35,974.153 1032.35,1024.99 981.5,1076C 980.833,1076.67 980.167,1076.67 979.5,1076C 960.986,1057.65 942.653,1039.15 924.5,1020.5C 944.653,999.847 964.986,979.347 985.5,959C 973.667,947.167 961.833,935.333 950,923.5C 922.333,951.167 894.667,978.833 867,1006.5C 866.333,1007.17 866.333,1007.83 867,1008.5C 966,1107.5 1065,1206.5 1164,1305.5C 1164.67,1306.17 1164.67,1306.83 1164,1307.5C 1114.33,1357.17 1064.67,1406.83 1015,1456.5C 953.653,1395.32 892.486,1333.99 831.5,1272.5C 849.833,1253.5 868.5,1234.83 887.5,1216.5C 929.653,1258.15 971.653,1299.99 1013.5,1342C 1014.5,1342.67 1015.5,1342.67 1016.5,1342C 1028,1330.5 1039.5,1319 1051,1307.5C 1051.67,1306.83 1051.67,1306.17 1051,1305.5C 1001.32,1255.65 951.486,1205.99 901.5,1156.5C 810.68,1246.82 720.014,1337.32 629.5,1428C 628.833,1428.67 628.167,1428.67 627.5,1428C 578.667,1379.17 529.833,1330.33 481,1281.5C 480.333,1280.83 480.333,1280.17 481,1279.5C 559.333,1201.17 637.667,1122.83 716,1044.5C 746.167,1074.67 776.333,1104.83 806.5,1135C 807.5,1135.67 808.5,1135.67 809.5,1135C 821,1123.5 832.5,1112 844,1100.5C 844.667,1099.83 844.667,1099.17 844,1098.5C 813.653,1068.32 783.486,1037.99 753.5,1007.5C 818.854,941.812 884.188,876.146 949.5,810.5 Z"/></g>
<g><path style="opacity:1" fill="#061225" d="M 715.5,1157.5 C 727.632,1169.13 739.632,1180.96 751.5,1193C 710.833,1233.67 670.167,1274.33 629.5,1315C 628.833,1315.67 628.167,1315.67 627.5,1315C 616.333,1303.83 605.167,1292.67 594,1281.5C 593.333,1280.83 593.333,1280.17 594,1279.5C 634.701,1238.97 675.201,1198.3 715.5,1157.5 Z"/></g>
</svg>
